<svg fill="none" height="32" viewBox="0 0 46 32" width="46" xmlns="http://www.w3.org/2000/svg" xmlns:xlink="http://www.w3.org/1999/xlink"><clipPath id="a"><path d="m0 0h45.7605v32h-45.7605z"/></clipPath><g clip-path="url(#a)"><path d="m24.271 31.9953c-.1085 0-.2187 0-.3275-.0028-4.4021-.0754-8.4735-1.6455-11.1694-4.3055-.4149-.4096-.8048-.8439-1.1675-1.3004-1.3965-.0833-2.71502-.6717-3.7096-1.6555-.5407-.5289-.96993-1.1608-1.26235-1.8583-.29241-.6975-.44209-1.4466-.44017-2.2029.00011-.4942.06452-.9863.1916-1.4639-1.42831-.0583-2.76205-.6221-3.78227-1.603-1.08541-1.0451-1.683111-2.4358-1.683111-3.9167 0-.1784.008956-.357.026624-.5347-.619263-.8958-.94980887-1.9595-.9473086-3.0485-.00252903-1.08886.3280226-2.1525.9473086-3.04817-.017668-.17766-.026624-.35657-.026624-.53499 0-1.48056.597201-2.87154 1.683111-3.91664 1.07695-1.03689 2.50749-1.607962 4.02812-1.607962.17418 0 .3516.007952.52703.023632.97386-.664846 2.12584-1.02000797 3.30504-1.01896651 1.1802-.00124229 2.3332.35439051 3.3077 1.02021651.1827-.01692.366-.024882.5492-.024882 1.0786-.004718 2.1372.291832 3.0564.856242.3544-.0928.7193-.13956 1.0857-.13911.2802-.00015.5599.0272.8348.08163.683-.43668 1.4769-.66822 2.2875-.66713.5322-.00014 1.0596.09919 1.5552.29288.4957-.19369 1.0231-.29302 1.5552-.29288.716-.00299 1.4209.17687 2.048.52255.3471-.08896.7041-.13378 1.0625-.13338.3287-.00005.6564.03795.9764.11323.8238-.41816 1.7349-.635425 2.6588-.634032.1742 0 .3516.007952.527.023632.9739-.664846 2.1259-1.02000797 3.305-1.01896651 1.1803-.00128891 2.3333.35434751 3.3078 1.02021651.1826-.01692.366-.024882.5491-.024882 1.5207 0 2.9512.571072 4.0282 1.607962 1.0854 1.0451 1.6831 2.43608 1.6831 3.91664 0 .18935-.0101.37856-.0301.56684.6054.88924.9281 1.9406.9259 3.01632.0022 1.0759-.3205 2.1273-.9259 3.0167.0201.1881.0301.3773.0301.5665 0 1.4809-.5972 2.8718-1.6831 3.9167-1.077 1.0369-2.5075 1.608-4.0282 1.608-.1719 0-.3446-.0075-.5165-.0224-.2199.1539-.4504.292-.6898.4133.1483.608.2224 1.2317.2205 1.8575 0 2.5481-.9797 4.8105-2.8333 6.5423-1.4131 1.3206-3.1412 2.3391-5.1364 3.0286-1.8287.6313-3.8701.965-5.9038.965z" fill="#fff"/><path clip-rule="evenodd" d="m35.3111 28.0017c-1.4131 1.3206-3.1413 2.3391-5.1364 3.0286-1.8287.6313-3.8701.9649-5.9039.9649h-.0003c-.1084 0-.2185 0-.3271-.0027-4.4021-.0754-8.4736-1.6455-11.1694-4.3056-.415-.4096-.8049-.8438-1.1675-1.3004-1.3965-.0832-2.71507-.6716-3.70966-1.6555-.54069-.5288-.96992-1.1607-1.26234-1.8582-.29242-.6976-.44209-1.4466-.44018-2.203.00011-.4265.04808-.8514.1429-1.2667.01506-.066.03129-.1317.04871-.1972-.0678-.0027-.13539-.0066-.20274-.0117-1.35148-.101-2.60774-.6569-3.57953-1.5912-1.08542-1.0451-1.683113-2.4359-1.683113-3.9167 0-.1784.008957-.3571.026624-.5347-.619262-.8958-.94980874-1.9595-.94730846-3.0485-.00252904-1.08889.32802246-2.15253.94730846-3.0482-.017667-.17766-.026624-.35657-.026624-.53499 0-1.48056.597203-2.87154 1.683113-3.91664 1.07695-1.03689 2.50749-1.607962 4.02811-1.607962.17419 0 .35161.007952.52703.023632.97387-.664846 2.12585-1.02000779 3.305-1.01896633 1.1802-.0012423 2.3333.35439033 3.3078 1.02021633.1826-.01692.366-.024882.5491-.024882 1.0787-.004717 2.1372.291832 3.0565.856242.3544-.0928.7193-.13956 1.0856-.13911.2803-.00015.5599.0272.8349.08163.6829-.43668 1.4768-.66822 2.2875-.66713.5321-.00014 1.0596.09919 1.5552.29288.4956-.19369 1.0231-.29302 1.5552-.29288.716-.00299 1.4209.17687 2.0479.52255.3472-.08896.7041-.13378 1.0625-.13338.3288-.00005.6564.03795.9764.11323.8239-.41816 1.735-.635425 2.6588-.634032.1742 0 .3516.007952.5271.023632.9738-.664846 2.1258-1.02000779 3.305-1.01896633 1.1802-.00128891 2.3332.35434733 3.3077 1.02021633.1827-.01692.366-.024882.5492-.024882 1.5206 0 2.9512.571072 4.0281 1.607962 1.0854 1.0451 1.6831 2.43608 1.6831 3.91664 0 .18935-.01.37856-.0301.56684.6054.88924.9281 1.9406.9259 3.01635.0023 1.0759-.3204 2.1273-.9259 3.0166.0201.1882.0301.3774.0301.5666 0 1.4808-.5972 2.8718-1.6831 3.9167-1.0769 1.0368-2.5075 1.6079-4.0281 1.6079-.172 0-.3446-.0074-.5166-.0224-.2199.1539-.4504.292-.6898.4133.1484.608.2224 1.2318.2205 1.8576 0 2.548-.9796 4.8104-2.8332 6.5423zm3.0323-6.5417c-.0002 2.6026-1.0025 4.9176-2.8964 6.6872-1.4353 1.3413-3.1883 2.3734-5.2073 3.0712h-.0001c-1.8506.6389-3.9141.9759-5.9688.9759h-.0017c-.1073 0-.2192 0-.33-.0028-4.444-.0763-8.567-1.6613-11.3049-4.3629h-.0001c-.3997-.3945-.7765-.8117-1.1284-1.2493-1.4115-.1053-2.74069-.7097-3.74845-1.7063-.55952-.5474-1.00371-1.2014-1.30634-1.9233-.30266-.7219-.45759-1.4972-.45565-2.2801m32.34814.7904c.0018-.5899-.0622-1.1779-.1906-1.7533.1771-.0958.3492-.2006.5155-.314.1539.0115.3082.0173.4619.0173 1.5711 0 3.0514-.5903 4.1661-1.6636 1.1242-1.0817 1.7442-2.5242 1.7442-4.06 0-.1721-.008-.344-.024-.5152.6017-.9094.922-1.9766.9198-3.0681.0022-1.09138-.3181-2.15854-.9198-3.06781.016-.17133.024-.34331.024-.51538 0-1.53572-.6205-2.97816-1.7441-4.06004-1.1148-1.07328-2.5951-1.663629-4.1662-1.663629-.1652 0-.3308.006277-.4962.019563-.9949-.662702-2.1643-1.016167-3.3607-1.014897-1.1955-.001018-2.3639.352039-3.3582 1.013833-.158-.012273-.317-.018494-.4737-.018499m-2.6844.623229c-.3123-.06811-.6311-.10247-.9509-.10243-.3488-.00038-.6964.04018-1.0357.12077-.639-.33757-1.3517-.512889-2.0752-.509935-.5309-.00009-1.0574.094435-1.5548.278935-.4975-.18453-1.0241-.27906-1.5551-.278935-.8221-.001076-1.6278.226355-2.3273.656125-.2624-.04711-.5285-.07076-.7952-.07062-.355-.00042-.7088.04153-1.0537.12487-.9337-.55535-2.0014-.846687-3.0888-.842009-.165.000011-.3305.006289-.4958.019564-.9949-.662659-2.1643-1.016119-3.3607-1.014898-1.19547-.001018-2.3639.352039-3.35821 1.013833-.15803-.012277-.31712-.018499-.47382-.018499-1.57112 0-3.05144.590349-4.16618 1.663619-1.12415 1.08192-1.74411 2.52438-1.74411 4.06005 0 .16075.007009.32183.020853.48207-.615809.9162-.944013 1.99611-.941538 3.10112-.002445 1.1051.325753 2.1851.941538 3.1014-.013843.1602-.020853.3211-.020853.4818 0 1.536.62049 2.9782 1.7441 4.0601l.00011.0001c.99796.9595 2.28568 1.533 3.67036 1.6438" fill="#fff" fill-rule="evenodd"/><path d="m40.2117 5.62369c0 2.62486-2.2114 4.75271-4.9393 4.75271-2.728 0-4.9394-2.12785-4.9394-4.75271 0-2.62485 2.2114-4.752718 4.9394-4.752718 2.7279 0 4.9393 2.127868 4.9393 4.752718z" fill="#000"/><path clip-rule="evenodd" d="m35.2724 9.92948c2.4974 0 4.4924-1.94384 4.4924-4.30579s-1.995-4.30578-4.4924-4.30578c-2.4975 0-4.4925 1.94383-4.4925 4.30578s1.995 4.30579 4.4925 4.30579zm0 .44692c2.7279 0 4.9393-2.12785 4.9393-4.75271 0-2.62485-2.2114-4.752718-4.9393-4.752718-2.728 0-4.9394 2.127868-4.9394 4.752718 0 2.62486 2.2114 4.75271 4.9394 4.75271z" fill="#000" fill-rule="evenodd"/><path d="m40.2117 14.8057c0 2.6249-2.2114 4.7527-4.9393 4.7527-2.728 0-4.9394-2.1278-4.9394-4.7527s2.2114-4.7527 4.9394-4.7527c2.7279 0 4.9393 2.1278 4.9393 4.7527z" fill="#000"/><path clip-rule="evenodd" d="m35.2724 19.1115c2.4974 0 4.4924-1.9439 4.4924-4.3058s-1.995-4.3058-4.4924-4.3058c-2.4975 0-4.4925 1.9439-4.4925 4.3058s1.995 4.3058 4.4925 4.3058zm0 .4469c2.7279 0 4.9393-2.1278 4.9393-4.7527s-2.2114-4.7527-4.9393-4.7527c-2.728 0-4.9394 2.1278-4.9394 4.7527s2.2114 4.7527 4.9394 4.7527z" fill="#000" fill-rule="evenodd"/><path d="m36.3797 6.61905c0 2.62486-2.2115 4.75275-4.9394 4.75275s-4.9393-2.12789-4.9393-4.75275c0-2.62485 2.2114-4.75272 4.9393-4.75272s4.9394 2.12787 4.9394 4.75272z" fill="#000"/><path clip-rule="evenodd" d="m31.4403 10.9248c2.4975 0 4.4924-1.9438 4.4924-4.30575 0-2.36194-1.9949-4.30578-4.4924-4.30578-2.4974 0-4.4924 1.94384-4.4924 4.30578 0 2.36195 1.995 4.30575 4.4924 4.30575zm0 .447c2.7279 0 4.9394-2.12789 4.9394-4.75275 0-2.62485-2.2115-4.75272-4.9394-4.75272s-4.9393 2.12787-4.9393 4.75272c0 2.62486 2.2114 4.75275 4.9393 4.75275z" fill="#000" fill-rule="evenodd"/><path d="m36.3797 13.7854c0 2.6249-2.2115 4.7528-4.9394 4.7528s-4.9393-2.1279-4.9393-4.7528c0-2.6248 2.2114-4.75269 4.9393-4.75269s4.9394 2.12789 4.9394 4.75269z" fill="#000"/><path clip-rule="evenodd" d="m31.4403 18.0912c2.4975 0 4.4924-1.9438 4.4924-4.3058 0-2.3619-1.9949-4.30575-4.4924-4.30575-2.4974 0-4.4924 1.94385-4.4924 4.30575 0 2.362 1.995 4.3058 4.4924 4.3058zm0 .447c2.7279 0 4.9394-2.1279 4.9394-4.7528 0-2.6248-2.2115-4.75269-4.9394-4.75269s-4.9393 2.12789-4.9393 4.75269c0 2.6249 2.2114 4.7528 4.9393 4.7528z" fill="#000" fill-rule="evenodd"/><path d="m44.0686 6.61905c0 2.62486-2.2114 4.75275-4.9393 4.75275s-4.9394-2.12789-4.9394-4.75275c0-2.62485 2.2115-4.75272 4.9394-4.75272s4.9393 2.12787 4.9393 4.75272z" fill="#000"/><path clip-rule="evenodd" d="m39.1293 10.9248c2.4975 0 4.4924-1.9438 4.4924-4.30575 0-2.36194-1.9949-4.30578-4.4924-4.30578s-4.4924 1.94384-4.4924 4.30578c0 2.36195 1.9949 4.30575 4.4924 4.30575zm0 .447c2.7279 0 4.9393-2.12789 4.9393-4.75275 0-2.62485-2.2114-4.75272-4.9393-4.75272s-4.9394 2.12787-4.9394 4.75272c0 2.62486 2.2115 4.75275 4.9394 4.75275z" fill="#000" fill-rule="evenodd"/><path d="m44.0686 13.7854c0 2.6249-2.2114 4.7528-4.9393 4.7528s-4.9394-2.1279-4.9394-4.7528c0-2.6248 2.2115-4.75269 4.9394-4.75269s4.9393 2.12789 4.9393 4.75269z" fill="#000"/><path clip-rule="evenodd" d="m39.1293 18.0912c2.4975 0 4.4924-1.9438 4.4924-4.3058 0-2.3619-1.9949-4.30575-4.4924-4.30575s-4.4924 1.94385-4.4924 4.30575c0 2.362 1.9949 4.3058 4.4924 4.3058zm0 .447c2.7279 0 4.9393-2.1279 4.9393-4.7528 0-2.6248-2.2114-4.75269-4.9393-4.75269s-4.9394 2.12789-4.9394 4.75269c0 2.6249 2.2115 4.7528 4.9394 4.7528z" fill="#000" fill-rule="evenodd"/><path d="m44.9641 10.2022c0 2.6248-2.2114 4.7527-4.9393 4.7527s-4.9394-2.1279-4.9394-4.7527c0-2.62487 2.2115-4.75274 4.9394-4.75274s4.9393 2.12787 4.9393 4.75274z" fill="#000"/><path clip-rule="evenodd" d="m40.0248 14.508c2.4975 0 4.4924-1.9439 4.4924-4.3058 0-2.36197-1.9949-4.3058-4.4924-4.3058s-4.4924 1.94383-4.4924 4.3058c0 2.3619 1.9949 4.3058 4.4924 4.3058zm0 .4469c2.7279 0 4.9393-2.1279 4.9393-4.7527 0-2.62487-2.2114-4.75274-4.9393-4.75274s-4.9394 2.12787-4.9394 4.75274c0 2.6248 2.2115 4.7527 4.9394 4.7527z" fill="#000" fill-rule="evenodd"/><path d="m35.4588 10.2022c0 2.6248-2.2114 4.7527-4.9394 4.7527-2.7279 0-4.9393-2.1279-4.9393-4.7527 0-2.62487 2.2114-4.75274 4.9393-4.75274 2.728 0 4.9394 2.12787 4.9394 4.75274z" fill="#000"/><path clip-rule="evenodd" d="m30.5194 14.508c2.4975 0 4.4924-1.9439 4.4924-4.3058 0-2.36197-1.9949-4.3058-4.4924-4.3058-2.4974 0-4.4924 1.94383-4.4924 4.3058 0 2.3619 1.995 4.3058 4.4924 4.3058zm0 .4469c2.728 0 4.9394-2.1279 4.9394-4.7527 0-2.62487-2.2114-4.75274-4.9394-4.75274-2.7279 0-4.9393 2.12787-4.9393 4.75274 0 2.6248 2.2114 4.7527 4.9393 4.7527z" fill="#000" fill-rule="evenodd"/><path clip-rule="evenodd" d="m22.6542 5.03455c6.8282 0 12.1803 5.96735 12.0222 12.64405-.0063.2648.0862.5222.2472.7325.6633.8666 1.0301 1.9088 1.0301 3.1472 0 1.9546-.7341 3.6301-2.1385 4.9425-5.0243 4.6952-14.7003 4.466-19.5039-.2741-.452-.4461-.8701-.928-1.2497-1.4414-.2405-.3252-.643-.4843-1.0475-.4795-.0149.0002-.0299.0003-.0448.0003-1.98051 0-3.586-1.5836-3.586-3.5372 0-1.439.87116-2.6773 2.1217-3.2298.0737-.0325.1226-.1048.1226-.1854 0-6.8037 5.3845-12.31915 12.0266-12.31915z" fill="#fff" fill-rule="evenodd"/><g fill="#000"><path clip-rule="evenodd" d="m36.0712 17.6185c.8288 1.1062 1.2759 2.4294 1.2759 3.9397 0 2.3403-.894 4.3846-2.5806 5.9606-2.8378 2.6519-6.8951 3.8439-10.8101 3.7763-3.9136-.0675-7.9086-1.3972-10.6239-4.0766l.9787-.9919c4.8036 4.7401 14.4796 4.9693 19.5039.2741 1.4044-1.3123 2.1385-2.9879 2.1385-4.9425 0-1.2384-.3668-2.2806-1.0301-3.1471-.161-.2104-.2535-.4678-.2472-.7326.1581-6.6767-5.194-12.64404-12.0222-12.64404-6.6421 0-12.0266 5.51544-12.0266 12.31914 0 .0806-.0489.1529-.1226.1855-1.25052.5524-2.12169 1.7907-2.12169 3.2298 0 1.9535 1.60549 3.5371 3.58599 3.5371.0149 0 .0299-.0001.0448-.0002.4045-.0049.807.1542 1.0475.4794.3797.5134.7977.9954 1.2497 1.4414l-.9787.9919c-.4783-.472-.9222-.9798-1.3276-1.5191-.0119.0001-.0238.0001-.0357.0001-2.73203 0-4.97945-2.1896-4.97945-4.9306 0-1.7384.90665-3.2563 2.26234-4.1322.3645-7.2118 6.19621-12.99571 13.40201-12.99571 7.6378 0 13.5409 6.61621 13.4171 13.97751z" fill-rule="evenodd"/><path d="m21.9073 5.82442c0-1.83149-1.5423-3.31621-3.4449-3.31621-1.9025 0-3.4448 1.48472-3.4448 3.31621s1.5423 3.3162 3.4448 3.3162c1.9026 0 3.4449-1.48471 3.4449-3.3162z"/><path clip-rule="evenodd" d="m18.4624 3.10542c1.5944 0 2.8477 1.23855 2.8477 2.719s-1.2533 2.719-2.8477 2.719c-1.5943 0-2.8476-1.23855-2.8476-2.719s1.2533-2.719 2.8476-2.719zm0-.59721c1.9026 0 3.4449 1.48472 3.4449 3.31621s-1.5423 3.3162-3.4449 3.3162c-1.9025 0-3.4448-1.48471-3.4448-3.3162s1.5423-3.31621 3.4448-3.31621z" fill-rule="evenodd"/><path d="m22.6542 9.86086c0-1.94762-1.6401-3.52647-3.6633-3.52647s-3.6633 1.57885-3.6633 3.52647c0 1.94764 1.6401 3.52644 3.6633 3.52644s3.6633-1.5788 3.6633-3.52644z"/><path clip-rule="evenodd" d="m18.9909 6.93159c1.715 0 3.0661 1.3327 3.0661 2.92927 0 1.59654-1.3511 2.92924-3.0661 2.92924s-3.0661-1.3327-3.0661-2.92924c0-1.59657 1.3511-2.92927 3.0661-2.92927zm0-.5972c2.0232 0 3.6633 1.57885 3.6633 3.52647 0 1.94764-1.6401 3.52644-3.6633 3.52644s-3.6633-1.5788-3.6633-3.52644c0-1.94762 1.6401-3.52647 3.6633-3.52647z" fill-rule="evenodd"/><path d="m26.412 9.46267c0-1.94762-1.6401-3.52647-3.6633-3.52647-2.0231 0-3.6633 1.57885-3.6633 3.52647 0 1.94763 1.6402 3.52643 3.6633 3.52643 2.0232 0 3.6633-1.5788 3.6633-3.52643z"/><path clip-rule="evenodd" d="m22.7487 6.5334c1.715 0 3.0661 1.33269 3.0661 2.92927 0 1.59653-1.3511 2.92923-3.0661 2.92923-1.7149 0-3.0661-1.3327-3.0661-2.92923 0-1.59658 1.3512-2.92927 3.0661-2.92927zm0-.5972c2.0232 0 3.6633 1.57885 3.6633 3.52647 0 1.94763-1.6401 3.52643-3.6633 3.52643-2.0231 0-3.6633-1.5788-3.6633-3.52643 0-1.94762 1.6402-3.52647 3.6633-3.52647z" fill-rule="evenodd"/><path d="m30.1693 9.26369c0-1.94761-1.6401-3.52647-3.6633-3.52647-2.0231 0-3.6632 1.57886-3.6632 3.52647s1.6401 3.52651 3.6632 3.52651c2.0232 0 3.6633-1.5789 3.6633-3.52651z"/><path clip-rule="evenodd" d="m26.506 6.33442c1.715 0 3.0661 1.3327 3.0661 2.92927 0 1.59661-1.3511 2.92931-3.0661 2.92931-1.7149 0-3.066-1.3327-3.066-2.92931 0-1.59657 1.3511-2.92927 3.066-2.92927zm0-.5972c2.0232 0 3.6633 1.57886 3.6633 3.52647s-1.6401 3.52651-3.6633 3.52651c-2.0231 0-3.6632-1.5789-3.6632-3.52651s1.6401-3.52647 3.6632-3.52647z" fill-rule="evenodd"/><path d="m33.9266 9.46267c0-1.94762-1.6401-3.52647-3.6632-3.52647-2.0232 0-3.6633 1.57885-3.6633 3.52647 0 1.94763 1.6401 3.52643 3.6633 3.52643 2.0231 0 3.6632-1.5788 3.6632-3.52643z"/><path clip-rule="evenodd" d="m30.2634 6.5334c1.7149 0 3.066 1.33269 3.066 2.92927 0 1.59653-1.3511 2.92923-3.066 2.92923-1.715 0-3.0661-1.3327-3.0661-2.92923 0-1.59658 1.3511-2.92927 3.0661-2.92927zm0-.5972c2.0231 0 3.6632 1.57885 3.6632 3.52647 0 1.94763-1.6401 3.52643-3.6632 3.52643-2.0232 0-3.6633-1.5788-3.6633-3.52643 0-1.94762 1.6401-3.52647 3.6633-3.52647z" fill-rule="evenodd"/><path d="m37.684 9.86086c0-1.94762-1.6401-3.52647-3.6633-3.52647s-3.6633 1.57885-3.6633 3.52647c0 1.94764 1.6401 3.52644 3.6633 3.52644s3.6633-1.5788 3.6633-3.52644z"/><path clip-rule="evenodd" d="m34.0207 6.93159c1.715 0 3.0661 1.3327 3.0661 2.92927 0 1.59654-1.3511 2.92924-3.0661 2.92924s-3.0661-1.3327-3.0661-2.92924c0-1.59657 1.3511-2.92927 3.0661-2.92927zm0-.5972c2.0232 0 3.6633 1.57885 3.6633 3.52647 0 1.94764-1.6401 3.52644-3.6633 3.52644s-3.6633-1.5788-3.6633-3.52644c0-1.94762 1.6401-3.52647 3.6633-3.52647z" fill-rule="evenodd"/><path d="m25.0298 5.23885c0-1.83149-1.5423-3.31621-3.4448-3.31621-1.9026 0-3.4449 1.48472-3.4449 3.31621s1.5423 3.3162 3.4449 3.3162c1.9025 0 3.4448-1.48471 3.4448-3.3162z"/><path clip-rule="evenodd" d="m21.585 2.51984c1.5943 0 2.8476 1.23856 2.8476 2.71901 0 1.48044-1.2533 2.719-2.8476 2.719-1.5944 0-2.8477-1.23856-2.8477-2.719 0-1.48045 1.2533-2.71901 2.8477-2.71901zm0-.5972c1.9025 0 3.4448 1.48472 3.4448 3.31621s-1.5423 3.3162-3.4448 3.3162c-1.9026 0-3.4449-1.48471-3.4449-3.3162s1.5423-3.31621 3.4449-3.31621z" fill-rule="evenodd"/><path d="m28.1402 5.23885c0-1.83149-1.5423-3.31621-3.4449-3.31621-1.9025 0-3.4448 1.48472-3.4448 3.31621s1.5423 3.3162 3.4448 3.3162c1.9026 0 3.4449-1.48471 3.4449-3.3162z"/><path clip-rule="evenodd" d="m24.6953 2.51984c1.5944 0 2.8477 1.23856 2.8477 2.71901 0 1.48044-1.2533 2.719-2.8477 2.719-1.5943 0-2.8476-1.23856-2.8476-2.719 0-1.48045 1.2533-2.71901 2.8476-2.71901zm0-.5972c1.9026 0 3.4449 1.48472 3.4449 3.31621s-1.5423 3.3162-3.4449 3.3162c-1.9025 0-3.4448-1.48471-3.4448-3.3162s1.5423-3.31621 3.4448-3.31621z" fill-rule="evenodd"/><path d="m31.2505 5.62911c0-1.83149-1.5423-3.31621-3.4448-3.31621s-3.4449 1.48472-3.4449 3.31621 1.5424 3.3162 3.4449 3.3162 3.4448-1.48471 3.4448-3.3162z"/><path clip-rule="evenodd" d="m27.8057 2.9101c1.5943 0 2.8476 1.23856 2.8476 2.71901 0 1.48044-1.2533 2.719-2.8476 2.719s-2.8477-1.23856-2.8477-2.719c0-1.48045 1.2534-2.71901 2.8477-2.71901zm0-.5972c1.9025 0 3.4448 1.48472 3.4448 3.31621s-1.5423 3.3162-3.4448 3.3162-3.4449-1.48471-3.4449-3.3162 1.5424-3.31621 3.4449-3.31621z" fill-rule="evenodd"/><path d="m23.9306 20.0735c0 .7477-.557 1.3539-1.2441 1.3539s-1.2441-.6062-1.2441-1.3539.557-1.3539 1.2441-1.3539 1.2441.6062 1.2441 1.3539z"/><path clip-rule="evenodd" d="m22.6865 20.8302c.3107 0 .6469-.2903.6469-.7567 0-.4665-.3362-.7567-.6469-.7567-.3108 0-.6469.2902-.6469.7567 0 .4664.3361.7567.6469.7567zm0 .5972c.6871 0 1.2441-.6062 1.2441-1.3539s-.557-1.3539-1.2441-1.3539-1.2441.6062-1.2441 1.3539.557 1.3539 1.2441 1.3539z" fill-rule="evenodd"/><path d="m34.0541 20.0735c0 .7477-.557 1.3539-1.2441 1.3539s-1.2441-.6062-1.2441-1.3539.557-1.3539 1.2441-1.3539 1.2441.6062 1.2441 1.3539z"/><path clip-rule="evenodd" d="m32.81 20.8302c.3108 0 .6469-.2903.6469-.7567 0-.4665-.3361-.7567-.6469-.7567-.3107 0-.6469.2902-.6469.7567 0 .4664.3362.7567.6469.7567zm0 .5972c.6871 0 1.2441-.6062 1.2441-1.3539s-.557-1.3539-1.2441-1.3539-1.2441.6062-1.2441 1.3539.557 1.3539 1.2441 1.3539z" fill-rule="evenodd"/><path clip-rule="evenodd" d="m26.5459 23.2022c.2065-.1813.521-.1608.7023.0458.1409.1606.4744.3014.913.3034.4321.0019.8057-.1329.9976-.326.1938-.1949.5089-.1958.7038-.0021.195.1938.1959.5089.0021.7038-.4439.4466-1.1165.6223-1.708.6196-.585-.0026-1.2524-.1816-1.6566-.6421-.1813-.2066-.1608-.5211.0458-.7024z" fill-rule="evenodd"/><path clip-rule="evenodd" d="m24.0689 17.2504c-1.4081-.0915-3.0617.5262-3.9112 1.2608-.2079.1798-.5222.157-.702-.0509s-.157-.5222.0509-.702c1.0456-.9042 2.9557-1.6097 4.6268-1.5012.2743.0179.4822.2546.4644.5289s-.2546.4822-.5289.4644z" fill-rule="evenodd"/><path clip-rule="evenodd" d="m31.4272 17.2504c1.4081-.0915 3.0617.5262 3.9112 1.2608.2079.1798.5222.157.702-.0509s.157-.5222-.0509-.702c-1.0457-.9042-2.9557-1.6097-4.6268-1.5012-.2743.0179-.4822.2546-.4644.5289s.2546.4822.5289.4644z" fill-rule="evenodd"/><path clip-rule="evenodd" d="m29.2009 19.6203c.2196-.1653.5316-.1212.6969.0984.271.3603.412.7469.3716 1.1279-.0414.3892-.2639.6895-.552.8734-.5539.3537-1.3687.3073-1.9668-.1891-.2115-.1755-.2406-.4893-.0651-.7008.1756-.2115.4893-.2406.7008-.0651.2921.2424.6351.2184.7955.1161.069-.0441.0927-.0914.0978-.1397.006-.0565-.0063-.1971-.1772-.4242-.1652-.2197-.1211-.5317.0985-.6969z" fill-rule="evenodd"/><path d="m15.4031 5.62369c0 2.62486-2.2114 4.75271-4.9393 4.75271-2.72796 0-4.93939-2.12785-4.93939-4.75271 0-2.62485 2.21143-4.752718 4.93939-4.752718 2.7279 0 4.9393 2.127868 4.9393 4.752718z"/><path clip-rule="evenodd" d="m10.4638 9.92948c2.4974 0 4.4924-1.94384 4.4924-4.30579s-1.995-4.30578-4.4924-4.30578c-2.49751 0-4.49245 1.94383-4.49245 4.30578s1.99494 4.30579 4.49245 4.30579zm0 .44692c2.7279 0 4.9393-2.12785 4.9393-4.75271 0-2.62485-2.2114-4.752718-4.9393-4.752718-2.72796 0-4.93939 2.127868-4.93939 4.752718 0 2.62486 2.21143 4.75271 4.93939 4.75271z" fill-rule="evenodd"/><path d="m15.4031 14.8057c0 2.6249-2.2114 4.7527-4.9393 4.7527-2.72796 0-4.93939-2.1278-4.93939-4.7527s2.21143-4.7527 4.93939-4.7527c2.7279 0 4.9393 2.1278 4.9393 4.7527z"/><path clip-rule="evenodd" d="m10.4638 19.1115c2.4974 0 4.4924-1.9439 4.4924-4.3058s-1.995-4.3058-4.4924-4.3058c-2.49751 0-4.49245 1.9439-4.49245 4.3058s1.99494 4.3058 4.49245 4.3058zm0 .4469c2.7279 0 4.9393-2.1278 4.9393-4.7527s-2.2114-4.7527-4.9393-4.7527c-2.72796 0-4.93939 2.1278-4.93939 4.7527s2.21143 4.7527 4.93939 4.7527z" fill-rule="evenodd"/><path d="m11.5711 6.61905c0 2.62486-2.21144 4.75275-4.93937 4.75275s-4.93935-2.12789-4.93935-4.75275c0-2.62485 2.21142-4.75272 4.93935-4.75272s4.93937 2.12787 4.93937 4.75272z"/><path clip-rule="evenodd" d="m6.63173 10.9248c2.49747 0 4.49237-1.9438 4.49237-4.30575 0-2.36194-1.9949-4.30578-4.49237-4.30578s-4.49241 1.94384-4.49241 4.30578c0 2.36195 1.99494 4.30575 4.49241 4.30575zm0 .447c2.72793 0 4.93937-2.12789 4.93937-4.75275 0-2.62485-2.21144-4.75272-4.93937-4.75272s-4.93935 2.12787-4.93935 4.75272c0 2.62486 2.21142 4.75275 4.93935 4.75275z" fill-rule="evenodd"/><path d="m11.5711 13.7854c0 2.6249-2.21144 4.7528-4.93937 4.7528s-4.93935-2.1279-4.93935-4.7528c0-2.6248 2.21142-4.75269 4.93935-4.75269s4.93937 2.12789 4.93937 4.75269z"/><path clip-rule="evenodd" d="m6.63173 18.0912c2.49747 0 4.49237-1.9438 4.49237-4.3058 0-2.3619-1.9949-4.30575-4.49237-4.30575s-4.49241 1.94385-4.49241 4.30575c0 2.362 1.99494 4.3058 4.49241 4.3058zm0 .447c2.72793 0 4.93937-2.1279 4.93937-4.7528 0-2.6248-2.21144-4.75269-4.93937-4.75269s-4.93935 2.12789-4.93935 4.75269c0 2.6249 2.21142 4.7528 4.93935 4.7528z" fill-rule="evenodd"/><path d="m19.26 6.61905c0 2.62486-2.2114 4.75275-4.9393 4.75275s-4.93935-2.12789-4.93935-4.75275c0-2.62485 2.21145-4.75272 4.93935-4.75272s4.9393 2.12787 4.9393 4.75272z"/><path clip-rule="evenodd" d="m14.3207 10.9248c2.4975 0 4.4924-1.9438 4.4924-4.30575 0-2.36194-1.9949-4.30578-4.4924-4.30578s-4.49241 1.94384-4.49241 4.30578c0 2.36195 1.99491 4.30575 4.49241 4.30575zm0 .447c2.7279 0 4.9393-2.12789 4.9393-4.75275 0-2.62485-2.2114-4.75272-4.9393-4.75272s-4.93935 2.12787-4.93935 4.75272c0 2.62486 2.21145 4.75275 4.93935 4.75275z" fill-rule="evenodd"/><path d="m19.26 13.7854c0 2.6249-2.2114 4.7528-4.9393 4.7528s-4.93935-2.1279-4.93935-4.7528c0-2.6248 2.21145-4.75269 4.93935-4.75269s4.9393 2.12789 4.9393 4.75269z"/><path clip-rule="evenodd" d="m14.3207 18.0912c2.4975 0 4.4924-1.9438 4.4924-4.3058 0-2.3619-1.9949-4.30575-4.4924-4.30575s-4.49241 1.94385-4.49241 4.30575c0 2.362 1.99491 4.3058 4.49241 4.3058zm0 .447c2.7279 0 4.9393-2.1279 4.9393-4.7528 0-2.6248-2.2114-4.75269-4.9393-4.75269s-4.93935 2.12789-4.93935 4.75269c0 2.6249 2.21145 4.7528 4.93935 4.7528z" fill-rule="evenodd"/><path d="m20.1555 10.2022c0 2.6248-2.2114 4.7527-4.9393 4.7527s-4.9393-2.1279-4.9393-4.7527c0-2.62487 2.2114-4.75274 4.9393-4.75274s4.9393 2.12787 4.9393 4.75274z"/><path clip-rule="evenodd" d="m15.2162 14.508c2.4975 0 4.4924-1.9439 4.4924-4.3058 0-2.36197-1.9949-4.3058-4.4924-4.3058s-4.4924 1.94383-4.4924 4.3058c0 2.3619 1.9949 4.3058 4.4924 4.3058zm0 .4469c2.7279 0 4.9393-2.1279 4.9393-4.7527 0-2.62487-2.2114-4.75274-4.9393-4.75274s-4.9393 2.12787-4.9393 4.75274c0 2.6248 2.2114 4.7527 4.9393 4.7527z" fill-rule="evenodd"/><path d="m10.6502 10.2022c0 2.6248-2.21144 4.7527-4.93937 4.7527-2.72792 0-4.939346-2.1279-4.939346-4.7527 0-2.62487 2.211426-4.75274 4.939346-4.75274 2.72793 0 4.93937 2.12787 4.93937 4.75274z"/><path clip-rule="evenodd" d="m5.71083 14.508c2.49747 0 4.49237-1.9439 4.49237-4.3058 0-2.36197-1.9949-4.3058-4.49237-4.3058s-4.49241 1.94383-4.49241 4.3058c0 2.3619 1.99494 4.3058 4.49241 4.3058zm0 .4469c2.72793 0 4.93937-2.1279 4.93937-4.7527 0-2.62487-2.21144-4.75274-4.93937-4.75274-2.72792 0-4.939346 2.12787-4.939346 4.75274 0 2.6248 2.211426 4.7527 4.939346 4.7527z" fill-rule="evenodd"/></g><path d="m15.5552 20.7689c0 1.9535-1.6055 3.5371-3.5859 3.5371-1.98051 0-3.586-1.5836-3.586-3.5371 0-1.9536 1.60549-3.5372 3.586-3.5372 1.9804 0 3.5859 1.5836 3.5859 3.5372z" fill="#fff"/><path d="m15.3126 20.9141c-.1029-1.4134-.6091-3.2015-2.562-3.6006-.3323-.0679-.518-.4783-.2986-.737l2.8265-3.3323c.1997-.2353.579-.1645.6735.1293.7065 2.1973 1.4223 5.3482.023 7.7531-.1874.322-.6353.1591-.6624-.2125z" fill="#000"/><path clip-rule="evenodd" d="m15.8107 20.0794c.3295-.8854.4145-1.8654.3466-2.8668-.0781-1.1531-.3564-2.2994-.6622-3.3005l-2.4274 2.8618c1.0519.2697 1.7442.9047 2.1766 1.664.2971.5217.4687 1.0955.5664 1.6415zm-3.0601-2.7659c1.9529.3991 2.4591 2.1872 2.562 3.6006.0271.3716.475.5345.6624.2125 1.3993-2.4049.6835-5.5558-.023-7.7531-.0945-.2938-.4738-.3646-.6735-.1293l-2.8265 3.3323c-.2194.2587-.0337.6691.2986.737z" fill="#000" fill-rule="evenodd"/><path clip-rule="evenodd" d="m10.8047 19.9605c.0693-.266.341-.4255.607-.3563.4312.1122.7888.2752 1.0785.5766.2786.29.4516.6652.6071 1.1053.0712.2017.0057.4263-.1629.558-.1685.1316-.4023.1409-.5808.023-.232-.1534-.4003-.2184-.5363-.2458-.1356-.0274-.2719-.0243-.4567.0036-.2717.041-.5253-.146-.5663-.4178-.0411-.2718.146-.5254.4178-.5664.0446-.0067.0898-.0128.1356-.0179-.0557-.0189-.1175-.0374-.1867-.0554-.266-.0692-.4255-.341-.3563-.6069z" fill="#000" fill-rule="evenodd"/></g></svg>